<svg xmlns="http://www.w3.org/2000/svg" version="1" baseProfile="full" viewBox="-12.5 -7.5 25 15" width="300" height="200"><defs><clipPath id="a"><path d="M-12.5-7.5h25v15h-25z"/></clipPath></defs><g clip-path="url(#a)" transform="matrix(1 0 0 1.11108 0 .017)"><path fill="#00247d" d="M-12.636-9.756h25.264V8.878h-25.264z"/><path d="M-25-15l50 30m-50 0l50-30" stroke="#fff" stroke-width="3"/><path d="M-25-15l50 30m-50 0l50-30" stroke="#cf142b" stroke-width="2"/><path d="M0 0l25 15h-2L-2 0m2 0l25-15h2L2 0M0 0l-25 15h-2L-2 0m2 0l-25-15h2L2 0" fill="#fff"/><path d="M-25 0h50M0-15v30" stroke="#fff" stroke-width="5"/><path d="M-25 0h50M0-15v30" stroke="#cf142b" stroke-width="3"/></g></svg>