<?xml version="1.0" encoding="UTF-8" standalone="no"?>
<svg width="182px" height="105px" viewBox="0 0 182 105" version="1.1" xmlns="http://www.w3.org/2000/svg" xmlns:xlink="http://www.w3.org/1999/xlink" xmlns:sketch="http://www.bohemiancoding.com/sketch/ns">
    <!-- Generator: Sketch 3.4.3 (16044) - http://www.bohemiancoding.com/sketch -->
    <title>404</title>
    <desc>Created with Sketch.</desc>
    <defs></defs>
    <g id="Page-1" stroke="none" stroke-width="1" fill="none" fill-rule="evenodd" sketch:type="MSPage">
        <g id="404" sketch:type="MSLayerGroup" fill="#FFFFFF">
            <path d="M6.54756055,6.21464092 C7.46691261,6.21464092 8.2121947,5.46935883 8.2121947,4.55000677 C8.2121947,3.63065472 7.46691261,2.88537263 6.54756055,2.88537263 C5.6282085,2.88537263 4.88292641,3.63065472 4.88292641,4.55000677 C4.88292641,5.46935883 5.6282085,6.21464092 6.54756055,6.21464092 Z M11.430487,6.21464092 C12.349839,6.21464092 13.0951211,5.46935883 13.0951211,4.55000677 C13.0951211,3.63065472 12.349839,2.88537263 11.430487,2.88537263 C10.5111349,2.88537263 9.76585281,3.63065472 9.76585281,4.55000677 C9.76585281,5.46935883 10.5111349,6.21464092 11.430487,6.21464092 Z M16.5353675,6.21464092 C17.4547196,6.21464092 18.2000017,5.46935883 18.2000017,4.55000677 C18.2000017,3.63065472 17.4547196,2.88537263 16.5353675,2.88537263 C15.6160155,2.88537263 14.8707334,3.63065472 14.8707334,4.55000677 C14.8707334,5.46935883 15.6160155,6.21464092 16.5353675,6.21464092 Z" id="Oval-4" sketch:type="MSShapeGroup"></path>
            <path d="M4.33520807,9.01121409 L177.44284,9.01121409 L178.004878,9.01121409 L178.004878,7.901458 L177.44284,7.901458 L4.33520807,7.901458 L3.77317031,7.901458 L3.77317031,9.01121409 L4.33520807,9.01121409 L4.33520807,9.01121409 Z" id="Shape" sketch:type="MSShapeGroup"></path>
            <path d="M1.1097561,4.44900343 L1.1097561,4.44900343 L1.1097561,99.8680697 C1.1097561,101.71274 2.60618362,103.207317 4.45370574,103.207317 L177.546294,103.207317 C179.400808,103.207317 180.890244,101.716662 180.890244,99.8680697 L180.890244,4.44900343 C180.890244,2.60433345 179.393816,1.1097561 177.546294,1.1097561 L4.45370574,1.1097561 C2.59919177,1.1097561 1.1097561,2.60041094 1.1097561,4.44900343 L1.1097561,4.44900343 Z M0,4.44900343 C0,1.99188668 1.98191653,0 4.45370574,0 L177.546294,0 C180.006008,0 182,1.99072242 182,4.44900343 L182,99.8680697 C182,102.325186 180.018083,104.317073 177.546294,104.317073 L4.45370574,104.317073 C1.99399198,104.317073 0,102.326351 0,99.8680697 L0,4.44900343 L0,4.44900343 Z" id="Shape" sketch:type="MSShapeGroup"></path>
            <path d="M69.8928742,66.1188519 L65.6410207,66.1188519 L65.1410207,66.1188519 L65.1410207,66.6188519 L65.1410207,74.3536585 L65.6410207,73.8536585 L55.3450443,73.8536585 L55.8450443,74.3536585 L55.8450443,66.6188519 L55.8450443,66.1188519 L55.3450443,66.1188519 L39.9512195,66.1188519 L40.4512195,66.6188519 L40.4512195,58.6953915 L40.3684343,58.9709487 L56.4131647,34.6779963 L55.9959498,34.902439 L65.6410207,34.902439 L65.1410207,34.402439 L65.1410207,58.550128 L65.1410207,59.050128 L65.6410207,59.050128 L69.891051,59.050128 L69.391051,58.550128 L69.391051,66.6094192 L69.4019608,66.7137416 L69.8928742,66.6188519 L69.8928742,66.1188519 L69.8928742,66.1188519 Z M69.8928742,67.1188519 L70.4987751,67.1188519 L70.3837876,66.5239622 L70.3819643,66.5145295 L70.391051,58.550128 L70.391051,58.050128 L69.891051,58.050128 L65.6410207,58.050128 L66.1410207,58.550128 L66.1410207,34.402439 L66.1410207,33.902439 L65.6410207,33.902439 L55.9959498,33.902439 L55.7269724,33.902439 L55.578735,34.1268818 L39.5340047,58.4198342 L39.4512195,58.5451773 L39.4512195,58.6953915 L39.4512195,66.6188519 L39.4512195,67.1188519 L39.9512195,67.1188519 L55.3450443,67.1188519 L54.8450443,66.6188519 L54.8450443,74.3536585 L54.8450443,74.8536585 L55.3450443,74.8536585 L65.6410207,74.8536585 L66.1410207,74.8536585 L66.1410207,74.3536585 L66.1410207,66.6188519 L65.6410207,67.1188519 L69.8928742,67.1188519 L69.8928742,67.1188519 Z M55.8450443,58.5595607 L55.8450443,53.9167902 C55.8450443,53.0444596 55.8758688,51.8718785 55.9375915,50.4004869 C55.9684563,49.664707 55.99596,49.1036757 56.0200171,48.7184721 C56.0361226,48.4605899 56.0615655,48.2003844 56.0407241,48.2472316 L56.3535783,47.5439968 L55.583892,47.5439968 L55.2921696,47.5439968 L54.9610235,47.5439968 L54.8318068,47.8488915 C54.2638392,49.1890456 53.5964079,50.4815835 52.8355201,51.7148987 L48.5643866,58.289053 L48.0625923,59.0614472 L48.9836734,59.0614472 L55.3468676,59.0614472 L56.5254478,59.0614472 L55.7063988,58.2139745 L55.7045755,58.212088 L55.3450443,58.5595607 L55.8450443,58.5595607 L55.8450443,58.5595607 Z M54.8450443,58.5595607 L54.8450443,58.7616899 L54.9855131,58.9070335 L54.9873364,58.90892 L55.3468676,58.5614472 L55.3468676,58.0614472 L48.9836734,58.0614472 L49.4029601,58.8338415 L53.6803394,52.2498231 C54.4741045,50.963477 55.1648156,49.6258558 55.7525324,48.239102 L55.2921696,48.0439968 L55.2921696,48.5439968 L55.583892,48.5439968 L55.583892,48.0439968 L55.1270599,47.8407619 C55.0491069,48.0159849 55.0114344,48.6191983 54.9384701,50.3585752 C54.8762108,51.8427602 54.8450443,53.0283518 54.8450443,53.9167902 L54.8450443,58.5595607 L54.8450443,58.5595607 Z M101.205882,54.4441263 C101.205882,61.2245853 100.075938,66.1649811 97.8439374,69.2634467 C95.639356,72.3238484 92.2660254,73.8536585 87.669814,73.8536585 C83.1840143,73.8536585 79.8386613,72.2570237 77.5793117,69.0545407 C75.2909389,65.8109192 74.1355811,60.9417731 74.1355811,54.4441263 C74.1355811,47.6276023 75.2657943,42.6560187 77.4986307,39.5314919 C79.7035316,36.446057 83.075142,34.9036231 87.6681074,34.902439 C92.1361829,34.902439 95.4772364,36.507163 97.7454305,39.7269675 C100.042489,42.9877461 101.20347,47.8926317 101.205882,54.4443105 L101.205882,54.4441263 Z M102.205882,54.4439422 C102.2034,47.7042446 100.996586,42.6057237 98.5629493,39.1510656 C96.1004481,35.6554334 92.450694,33.902439 87.6679785,33.902439 C82.767609,33.9037023 79.0884521,35.5868316 76.6850243,38.9500759 C74.3095322,42.2742283 73.1355811,47.4382063 73.1355811,54.4441263 C73.1355811,61.130174 74.3370052,66.1934622 76.7621964,69.631015 C79.2164108,73.1097063 82.870431,74.8536585 87.669814,74.8536585 C92.5717031,74.8536585 96.2515871,73.1848259 98.6553344,69.8479421 C101.031662,66.5491221 102.205882,61.4151392 102.205882,54.4441263 L102.205882,54.4439422 Z M83.5850825,54.4441263 C83.5850825,58.8904795 83.8635737,61.9532413 84.4349159,63.6659838 C85.0470139,65.5009022 86.1396039,66.4771751 87.6694016,66.4728209 C89.2233403,66.4728229 90.321707,65.4637552 90.9216784,63.5727018 C91.4810173,61.8097185 91.7551435,58.7738838 91.7563809,54.436927 C91.7563809,50.0826612 91.477902,47.0243752 90.9087306,45.2344766 C90.2990689,43.3172461 89.2065242,42.2958037 87.6660863,42.3016331 C86.1337712,42.3016295 85.04029,43.2898218 84.428888,45.1430791 C83.8579431,46.8737042 83.5813698,49.9631188 83.5850827,54.4445406 L83.5850825,54.4441263 Z M84.5850823,54.4437121 C84.5814532,50.0634005 84.8506352,47.0565495 85.378543,45.4563767 C85.8659936,43.9788362 86.6153544,43.3016295 87.6679785,43.3016295 C88.716264,43.2976661 89.4665613,43.9991345 89.9557523,45.537515 C90.4854336,47.2032275 90.7563809,50.1788005 90.7563809,54.4367844 C90.755171,58.6775296 90.4884366,61.6315022 89.9685014,63.2702889 C89.4891988,64.7810056 88.736158,65.4728229 87.6679785,65.4728229 C86.6168637,65.4758126 85.8702827,64.8087125 85.3835281,63.3495427 C84.8560176,61.7681971 84.5850825,58.7885343 84.5850825,54.4441263 L84.5850823,54.4437121 Z M135.390244,66.1188519 L131.13839,66.1188519 L130.63839,66.1188519 L130.63839,66.6188519 L130.63839,74.3536585 L131.13839,73.8536585 L120.842414,73.8536585 L121.342414,74.3536585 L121.342414,66.6188519 L121.342414,66.1188519 L120.842414,66.1188519 L105.448589,66.1188519 L105.948589,66.6188519 L105.948589,58.6953915 L105.865732,58.9710577 L121.919579,34.6781053 L121.502436,34.902439 L131.140214,34.902439 L130.640214,34.402439 L130.640214,58.550128 L130.640214,59.050128 L131.140214,59.050128 L135.390244,59.050128 L134.890244,58.550128 L134.890244,66.6094192 L134.890244,66.6188519 L135.390244,66.6188519 L135.390244,66.1188519 L135.390244,66.1188519 Z M135.390244,67.1188519 L135.890244,67.1188519 L135.890244,66.6188519 L135.890244,66.6094192 L135.890244,58.550128 L135.890244,58.050128 L135.390244,58.050128 L131.140214,58.050128 L131.640214,58.550128 L131.640214,34.402439 L131.640214,33.902439 L131.140214,33.902439 L121.502436,33.902439 L121.233543,33.902439 L121.085293,34.1267728 L105.031446,58.4197252 L104.948589,58.5451061 L104.948589,58.6953915 L104.948589,66.6188519 L104.948589,67.1188519 L105.448589,67.1188519 L120.842414,67.1188519 L120.342414,66.6188519 L120.342414,74.3536585 L120.342414,74.8536585 L120.842414,74.8536585 L131.13839,74.8536585 L131.63839,74.8536585 L131.63839,74.3536585 L131.63839,66.6188519 L131.13839,67.1188519 L135.390244,67.1188519 L135.390244,67.1188519 Z M121.342414,58.5595607 L121.342414,53.9167902 C121.342414,53.0444596 121.373238,51.8718785 121.434961,50.4004869 C121.465826,49.664707 121.49333,49.1036757 121.517387,48.7184721 C121.533492,48.4605899 121.558935,48.2003844 121.538094,48.2472316 L121.850948,47.5439968 L121.081262,47.5439968 L120.791363,47.5439968 L120.460468,47.5439968 L120.331136,47.84857 C119.762016,49.1888384 119.093385,50.481378 118.331268,51.7145731 L114.059933,58.289053 L113.558139,59.0614472 L114.47922,59.0614472 L120.842414,59.0614472 L121.342414,59.0614472 L121.342414,58.5614472 L121.342414,58.5595607 L121.342414,58.5595607 Z M120.342414,58.5595607 L120.342414,58.5614472 L120.842414,58.5614472 L120.842414,58.0614472 L114.47922,58.0614472 L114.898507,58.8338415 L119.175886,52.2498231 C119.970724,50.9639241 120.662678,49.6262982 121.251589,48.2394235 L120.791363,48.0439968 L120.791363,48.5439968 L121.081262,48.5439968 L121.081262,48.0439968 L120.62443,47.8407619 C120.546477,48.0159849 120.508804,48.6191983 120.43584,50.3585752 C120.37358,51.8427602 120.342414,53.0283518 120.342414,53.9167902 L120.342414,58.5595607 L120.342414,58.5595607 Z" id="Shape" sketch:type="MSShapeGroup"></path>
        </g>
    </g>
</svg>