<?xml version="1.0" encoding="UTF-8" standalone="no"?>
<svg width="82px" height="82px" viewBox="0 0 82 82" version="1.1" xmlns="http://www.w3.org/2000/svg" xmlns:xlink="http://www.w3.org/1999/xlink" xmlns:sketch="http://www.bohemiancoding.com/sketch/ns">
    <!-- Generator: Sketch 3.4.3 (16044) - http://www.bohemiancoding.com/sketch -->
    <title>chrome</title>
    <desc>Created with Sketch.</desc>
    <defs></defs>
    <g id="Page-1" stroke="none" stroke-width="1" fill="none" fill-rule="evenodd" sketch:type="MSPage">
        <path d="M21.41,24.18 C27.0129532,17.6616187 35.4960702,14.3644779 44.0303861,15.3881141 C52.564702,16.4117503 60.0274727,21.6214976 63.93,29.28 L44,29.28 C40.4,29.28 38.08,29.2 35.56,30.52 C32.5205815,32.1380873 30.3318836,34.994338 29.56,38.35 L21.41,24.18 Z M32.39,41 C32.4065882,45.7239224 36.2427085,49.5436033 40.9666586,49.5399038 C45.6906087,49.5362043 49.5207417,45.7105198 49.5299309,40.9865772 C49.5391202,36.2626345 45.7239,32.4220779 41,32.4 C38.715779,32.3920069 36.522663,33.2951878 34.9065267,34.9094471 C33.2903904,36.5237063 32.3846615,38.7157713 32.39,41 L32.39,41 Z M44.29,52.22 C39.0564509,53.8324145 33.410009,51.5479443 30.77,46.75 C28.42,42.69 22.2,31.86 19.37,26.94 C14.7300797,34.117622 13.945829,43.1272202 17.2757928,50.9985898 C20.6057566,58.8699594 27.6177047,64.5813947 36,66.25 L44.29,52.22 Z M41,8 C59.2253967,8 74,22.7746033 74,41 C74,59.2253967 59.2253967,74 41,74 C22.7746033,74 8,59.2253967 8,41 C8,22.7746033 22.7746033,8 41,8 L41,8 Z M48.92,32.4 C52.9112514,36.1199667 53.8106397,42.1006913 51.09,46.83 C49.09,50.35 42.52,61.36 39.36,66.69 C47.9863311,67.2187771 56.3040809,63.3915383 61.5143354,56.4961455 C66.7245899,49.6007528 68.134638,40.5539587 65.27,32.4 L48.92,32.4 Z M41,0 C18.3563253,-1.38652519e-15 2.77305038e-15,18.3563253 0,41 C-2.77305038e-15,63.6436747 18.3563253,82 41,82 C63.6436747,82 82,63.6436747 82,41 C82,30.1261239 77.6803695,19.6976135 69.991378,12.008622 C62.3023865,4.31963045 51.8738761,6.65832877e-16 41,0 L41,0 L41,0 Z" id="chrome" fill="#9B9B9B" sketch:type="MSShapeGroup"></path>
    </g>
</svg>