<?xml version="1.0" encoding="UTF-8" standalone="no"?>
<svg width="82px" height="82px" viewBox="0 0 82 82" version="1.1" xmlns="http://www.w3.org/2000/svg" xmlns:xlink="http://www.w3.org/1999/xlink" xmlns:sketch="http://www.bohemiancoding.com/sketch/ns">
    <!-- Generator: Sketch 3.4.3 (16044) - http://www.bohemiancoding.com/sketch -->
    <title>firefox</title>
    <desc>Created with Sketch.</desc>
    <defs></defs>
    <g id="Page-1" stroke="none" stroke-width="1" fill="none" fill-rule="evenodd" sketch:type="MSPage">
        <path d="M41,8 C59.2253967,8 74,22.7746033 74,41 C74,59.2253967 59.2253967,74 41,74 C22.7746033,74 8,59.2253967 8,41 C8,22.7746033 22.7746033,8 41,8 L41,8 Z M41,0 C18.3563253,-1.38652519e-15 2.77305038e-15,18.3563253 0,41 C-2.77305038e-15,63.6436747 18.3563253,82 41,82 C63.6436747,82 82,63.6436747 82,41 C82,30.1261239 77.6803695,19.6976135 69.991378,12.008622 C62.3023865,4.31963045 51.8738761,6.65832877e-16 41,0 L41,0 Z M40.41,65.56 C22.47,65.56 9.89,45.44 19.24,28.71 C18.94,26.13 19.44,23.98 21.87,21.11 C21.8811725,23.2581307 22.8670252,25.2850145 24.55,26.62 C26.2893907,26.2405054 28.0929297,26.2678836 29.82,26.7 C31.3883478,24.4524475 34.1240672,23.3268944 36.82,23.82 C34.9646146,24.7646672 33.6957716,26.565002 33.43,28.63 C33.71,29.35 34,30.92 38.33,30.63 C39.0052562,30.5277727 39.6932992,30.700684 40.24,31.11 C40.2105625,32.4276717 39.4350679,33.6141783 38.24,34.17 C37.0257514,34.8030941 35.8826002,35.5640774 34.83,36.44 C33.7773998,37.3159226 35.45,38.5 34.61,39.59 C30.73,38.05 30.61,43.17 34.37,44.59 C37.48,45.78 40.01,43.98 41.54,43.74 C45.27,43.17 47.08,46.54 45.37,46.67 C43.93,46.78 43.72,46.87 41.49,48.37 C39.3525913,49.7283169 36.7794257,50.2250809 34.29,49.76 C40.56,56.68 61.11,50.55 52.6,30.62 C54.06,31.54 56.5,35.02 57.26,39.05 C58,35.65 55.9,24 47.12,20.56 C49.79,20.39 57.72,23.56 60.9,31.86 C60.9901237,28.7064051 59.9946127,25.617497 58.08,23.11 C62.02,24.71 65.87,32.11 65.87,40.62 C65.87,53.24 56.52,65.56 40.41,65.56 Z" id="firefox" fill="#9B9B9B" sketch:type="MSShapeGroup"></path>
    </g>
</svg>