<?xml version="1.0" encoding="UTF-8" standalone="no"?>
<svg width="25px" height="26px" viewBox="0 0 25 26" version="1.1" xmlns="http://www.w3.org/2000/svg" xmlns:xlink="http://www.w3.org/1999/xlink" xmlns:sketch="http://www.bohemiancoding.com/sketch/ns">
    <!-- Generator: Sketch 3.4.3 (16044) - http://www.bohemiancoding.com/sketch -->
    <title>instagram</title>
    <desc>Created with Sketch.</desc>
    <defs></defs>
    <g id="Page-1" stroke="none" stroke-width="1" fill="none" fill-rule="evenodd" sketch:type="MSPage">
        <path d="M8.86,12.68 C8.86,14.6903165 10.4896835,16.32 12.5,16.32 C14.5103165,16.32 16.14,14.6903165 16.14,12.68 C16.14,10.6696835 14.5103165,9.04 12.5,9.04 C10.4896835,9.04 8.86,10.6696835 8.86,12.68 L8.86,12.68 Z M7.56,12.68 C7.54380373,10.6833521 8.73355289,8.87409909 10.5731932,8.09783331 C12.4128335,7.32156753 14.5390449,7.73159776 15.9580978,9.13628775 C17.3771506,10.5409777 17.8087889,12.662908 17.0512774,14.5103498 C16.2937658,16.3577916 14.4967093,17.5658842 12.5,17.57 C9.78663451,17.5810803 7.57652243,15.3933378 7.56,12.68 L7.56,12.68 Z M22.74,2.87 C22.74,2.43369505 22.386305,2.08 21.95,2.08 L19.27,2.08 C18.841525,2.09085092 18.4998626,2.44138768 18.5,2.87 L18.5,5.57 C18.5,6.00630495 18.853695,6.36 19.29,6.36 L21.96,6.36 C22.3923947,6.35452621 22.7400346,6.00242936 22.74,5.57 L22.74,2.87 L22.74,2.87 Z M25,4.95 L25,8.2 L17,8.2 C15.7987939,6.97910027 14.1577441,6.29152597 12.445,6.29152597 C10.7322559,6.29152597 9.09120611,6.97910027 7.89,8.2 L0,8.2 L0,4.95 C0.0113047067,3.35775741 0.789397546,1.86858451 2.09,0.95 L2.09,6.24 L3.09,6.24 L3.09,0.36 C3.32723685,0.26777971 3.57131187,0.194222856 3.82,0.14 L3.82,6.24 L4.82,6.24 L4.82,0.01 L5.5,0.01 L5.5,6.24 L6.5,6.24 L6.5,0 L20.06,0 C21.3719039,-2.68793387e-06 22.6299301,0.521832592 23.5566478,1.45042624 C24.4833655,2.3790199 25.0026557,3.63809878 25,4.95 L25,4.95 Z M17.7,8.95 L25,8.95 L25,20.19 C25,22.9182867 22.7882867,25.13 20.06,25.13 L4.94,25.13 C2.21171334,25.13 2.77555756e-16,22.9182867 0,20.19 L0,8.98 L7.27,8.98 C5.38061093,11.6358707 5.78899159,15.287438 8.2184127,17.4603055 C10.6478338,19.6331731 14.3221662,19.6331731 16.7515873,17.4603055 C19.1810084,15.287438 19.5893891,11.6358707 17.7,8.98 L17.7,8.95 Z" id="instagram" fill="#9B9B9B" sketch:type="MSShapeGroup"></path>
    </g>
</svg>