<?xml version="1.0" encoding="UTF-8" standalone="no"?>
<svg width="18px" height="25px" viewBox="0 0 18 25" version="1.1" xmlns="http://www.w3.org/2000/svg" xmlns:xlink="http://www.w3.org/1999/xlink" xmlns:sketch="http://www.bohemiancoding.com/sketch/ns">
    <!-- Generator: Sketch 3.4.4 (17249) - http://www.bohemiancoding.com/sketch -->
    <title>Untitled</title>
    <desc>Created with Sketch.</desc>
    <defs></defs>
    <g id="Page-1" stroke="none" stroke-width="1" fill="none" fill-rule="evenodd" sketch:type="MSPage">
        <path d="M9.02,0.0268503007 C6.7169845,-0.158179533 4.44021022,0.619063486 2.73109737,2.17374985 C1.02198452,3.7284362 0.0332440927,5.92165307 0,8.2318503 C0.0200722354,9.73565418 0.462578557,11.2035138 1.277,12.4678503 L7.161,22.9528503 C7.54595298,23.614701 8.25384006,24.0218888 9.0195,24.0218888 C9.78515994,24.0218888 10.493047,23.614701 10.878,22.9528503 L16.745,12.4698503 C17.5530178,11.2030698 17.9879526,9.73434171 18,8.2318503 C17.9765888,5.92563482 16.9964807,3.73271522 15.2938405,2.17701782 C13.5912004,0.621320424 11.3189611,-0.157420278 9.02,0.0268503007 L9.02,0.0268503007 Z M9.067,10.6608503 C7.49586844,10.6060738 6.26120782,9.29749384 6.29777658,7.72583307 C6.33434534,6.15417231 7.6285319,4.90443255 9.20051088,4.92278864 C10.7724898,4.94114472 12.0371409,6.22076417 12.037,7.7928503 C12.0079845,9.40444409 10.6786142,10.6877117 9.067,10.6598503 L9.067,10.6608503 Z" id="Shape" fill="#FFDE00" sketch:type="MSShapeGroup"></path>
    </g>
</svg>