<svg xmlns="http://www.w3.org/2000/svg" width="18" height="24" viewBox="0 0 18 24">
  <defs>
    <style>
      .cls-1 {
        fill: #ffde00;
        fill-rule: evenodd;
      }
    </style>
  </defs>
  <path class="cls-1" d="M179.02,490A8.352,8.352,0,0,0,170,498.205a8.02,8.02,0,0,0,1.277,4.236l5.884,10.485a2.15,2.15,0,0,0,3.717,0l5.867-10.483A8,8,0,0,0,188,498.205,8.316,8.316,0,0,0,179.02,490Zm0.047,10.634a2.87,2.87,0,1,1,2.97-2.868A2.92,2.92,0,0,1,179.067,500.633Z" transform="translate(-170 -490)"/>
</svg>
