<?xml version="1.0" encoding="UTF-8" standalone="no"?>
<svg width="19px" height="25px" viewBox="0 0 19 25" version="1.1" xmlns="http://www.w3.org/2000/svg" xmlns:xlink="http://www.w3.org/1999/xlink" xmlns:sketch="http://www.bohemiancoding.com/sketch/ns">
    <!-- Generator: Sketch 3.4.4 (17249) - http://www.bohemiancoding.com/sketch -->
    <title>location</title>
    <desc>Created with Sketch.</desc>
    <defs></defs>
    <g id="Page-1" stroke="none" stroke-width="1" fill="none" fill-rule="evenodd" sketch:type="MSPage">
        <path d="M7.40138836,0.148548247 C5.6982953,0.416065856 4.13561572,1.06325152 2.84548134,2.23681611 C1.06478733,3.85661592 0.0346364236,6.14168922 0,8.54864225 C0.0209129018,10.1154285 0.481952297,11.6447651 1.33048338,12.9620546 L7.46091739,23.886188 C7.86199299,24.5757583 8.59952784,25 9.39725519,25 C10.1949825,25 10.9325174,24.5757583 11.333593,23.886188 L17.446315,12.9641384 C18.2881742,11.6443025 18.741325,10.1140611 18.753877,8.54864225 C18.7294853,6.14583773 17.7083282,3.86107415 15.934378,2.24022095 C14.1604278,0.619367753 12.0046766,-9.68940215e-10 9.39777613,1.08442636e-17 C8.71685499,-2.66931284e-10 8.04897106,0.0468275722 7.40138836,0.148548247 Z M9.44674458,11.0793738 C7.80981081,11.0223031 6.52344006,9.65891713 6.5615404,8.02143198 C6.59964073,6.38394684 7.94803049,5.08186541 9.58584717,5.10099029 C11.2236638,5.12011516 12.5412811,6.45332771 12.5411343,8.09125603 C12.5109036,9.77034668 11.1258565,11.1073602 9.44674458,11.0783319 L9.44674458,11.0793738 L9.44674458,11.0793738 Z" id="location" fill="#9B9B9B" sketch:type="MSShapeGroup"></path>
    </g>
</svg>