<?xml version="1.0" encoding="UTF-8" standalone="no"?>
<svg width="20px" height="20px" viewBox="0 0 20 20" version="1.1" xmlns="http://www.w3.org/2000/svg" xmlns:xlink="http://www.w3.org/1999/xlink" xmlns:sketch="http://www.bohemiancoding.com/sketch/ns">
    <!-- Generator: Sketch 3.4.3 (16044) - http://www.bohemiancoding.com/sketch -->
    <title>more</title>
    <desc>Created with Sketch.</desc>
    <defs></defs>
    <g id="Page-1" stroke="none" stroke-width="1" fill="none" fill-rule="evenodd" sketch:type="MSPage">
        <path d="M10,18.5 C14.6944204,18.5 18.5,14.6944204 18.5,10 C18.5,5.30557963 14.6944204,1.5 10,1.5 C5.30557963,1.5 1.5,5.30557963 1.5,10 C1.5,14.6944204 5.30557963,18.5 10,18.5 Z M10,11.5 C10.8284271,11.5 11.5,10.8284271 11.5,10 C11.5,9.17157288 10.8284271,8.5 10,8.5 C9.17157288,8.5 8.5,9.17157288 8.5,10 C8.5,10.8284271 9.17157288,11.5 10,11.5 Z M14,11.5 C14.8284271,11.5 15.5,10.8284271 15.5,10 C15.5,9.17157288 14.8284271,8.5 14,8.5 C13.1715729,8.5 12.5,9.17157288 12.5,10 C12.5,10.8284271 13.1715729,11.5 14,11.5 Z M6,11.5 C6.82842712,11.5 7.5,10.8284271 7.5,10 C7.5,9.17157288 6.82842712,8.5 6,8.5 C5.17157288,8.5 4.5,9.17157288 4.5,10 C4.5,10.8284271 5.17157288,11.5 6,11.5 Z M10,20 L10,20 C4.4771525,20 0,15.5228475 0,10 C0,4.4771525 4.4771525,0 10,0 C15.5228475,0 20,4.4771525 20,10 C20,15.5228475 15.5228475,20 10,20 L10,20 Z" id="more" fill="#9B9B9B" sketch:type="MSShapeGroup"></path>
    </g>
</svg>