<?xml version="1.0" encoding="UTF-8" standalone="no"?>
<svg width="82px" height="82px" viewBox="0 0 82 82" version="1.1" xmlns="http://www.w3.org/2000/svg" xmlns:xlink="http://www.w3.org/1999/xlink" xmlns:sketch="http://www.bohemiancoding.com/sketch/ns">
    <!-- Generator: Sketch 3.4.3 (16044) - http://www.bohemiancoding.com/sketch -->
    <title>opera</title>
    <desc>Created with Sketch.</desc>
    <defs></defs>
    <g id="Page-1" stroke="none" stroke-width="1" fill="none" fill-rule="evenodd" sketch:type="MSPage">
        <path d="M41,8 C59.2253967,8 74,22.7746033 74,41 C74,59.2253967 59.2253967,74 41,74 C22.7746033,74 8,59.2253967 8,41 C8,22.7746033 22.7746033,8 41,8 L41,8 Z M41,0 C18.3563253,-1.38652519e-15 2.77305038e-15,18.3563253 0,41 C-2.77305038e-15,63.6436747 18.3563253,82 41,82 C63.6436747,82 82,63.6436747 82,41 C82,30.1261239 77.6803695,19.6976135 69.991378,12.008622 C62.3023865,4.31963045 51.8738761,6.65832877e-16 41,0 L41,0 Z M49.79,40.18 C49.79,48.78 48.96,60.3 41.06,60.3 C33.16,60.3 32.14,48.67 32.14,40.07 C32.14,30.79 33.64,20.67 40.97,20.67 C48.3,20.67 49.79,30.89 49.79,40.18 Z M63.73,40.64 C63.73,25.64 53.92,16.33 40.97,16.33 C28.02,16.33 18.2,25.63 18.2,40.64 C18.2,53.64 27.31,65.42 40.97,65.42 C54.63,65.42 63.73,53.61 63.73,40.64 L63.73,40.64 Z" id="opera" fill="#9B9B9B" sketch:type="MSShapeGroup"></path>
    </g>
</svg>