<?xml version="1.0" encoding="UTF-8" standalone="no"?>
<svg width="30px" height="31px" viewBox="0 0 30 31" version="1.1" xmlns="http://www.w3.org/2000/svg" xmlns:xlink="http://www.w3.org/1999/xlink" xmlns:sketch="http://www.bohemiancoding.com/sketch/ns">
    <!-- Generator: Sketch 3.4.4 (17249) - http://www.bohemiancoding.com/sketch -->
    <title>pdf</title>
    <desc>Created with Sketch.</desc>
    <defs></defs>
    <g id="Page-1" stroke="none" stroke-width="1" fill="none" fill-rule="evenodd" sketch:type="MSPage">
        <path d="M13.8333333,9.83333333 L13.8333333,9.83333333 L13.8333333,9.83333333 C14,9.16666667 14.1666667,8.83333333 14.1666667,8.33333333 L14.1666667,8 C14.3333333,7.16666667 14.3333333,6.5 14.1666667,6.33333333 C14.1666667,6.33333333 14.1666667,6.33333333 14.1666667,6.16666667 L14,6 L14,6 C14,6 14,6.16666667 13.8333333,6.16666667 C13.5,7.16666667 13.5,8.33333333 13.8333333,9.83333333 L13.8333333,9.83333333 L13.8333333,9.83333333 L13.8333333,9.83333333 Z M8.83333333,21.3333333 C8.5,21.5 8.16666667,21.6666667 8,21.8333333 C6.83333333,22.8333333 6,24 5.83333333,24.5 L5.83333333,24.5 C6.83333333,24.3333333 7.83333333,23.3333333 8.83333333,21.3333333 L8.83333333,21.3333333 L8.83333333,21.3333333 L8.83333333,21.3333333 L8.83333333,21.3333333 Z M24.1666667,18.8333333 C24,18.6666667 23.3333333,18.1666667 21,18.1666667 L20.6666667,18.1666667 L20.6666667,18.1666667 C20.6666667,18.1666667 20.6666667,18.1666667 20.6666667,18.3333333 C21.8333333,18.8333333 23,19.1666667 23.8333333,19.1666667 L24.1666667,19.1666667 L24.1666667,19.1666667 L24.3333333,19.1666667 C24.3333333,19.1666667 24.3333333,19.1666667 24.3333333,19 L24.3333333,19 C24.3333333,19 24.1666667,19 24.1666667,18.8333333 L24.1666667,18.8333333 L24.1666667,18.8333333 Z M26.6666667,0.5 L3.33333333,0.5 C1.5,0.5 0,2 0,3.83333333 L0,27.1666667 C0,29 1.5,30.5 3.33333333,30.5 L26.6666667,30.5 C28.5,30.5 30,29 30,27.1666667 L30,3.83333333 C30,2 28.5,0.5 26.6666667,0.5 L26.6666667,0.5 L26.6666667,0.5 Z M24.8333333,20.1666667 C24.5,20.3333333 24,20.5 23.3333333,20.5 C22,20.5 20,20.1666667 18.3333333,19.3333333 C15.5,19.6666667 13.3333333,20 11.6666667,20.6666667 C11.5,20.6666667 11.5,20.6666667 11.3333333,20.8333333 C9.33333333,24.3333333 7.66666667,26 6.33333333,26 C6,26 5.83333333,26 5.66666667,25.8333333 L4.83333333,25.3333333 L4.83333333,25.1666667 C4.66666667,24.8333333 4.66666667,24.6666667 4.66666667,24.3333333 C4.83333333,23.5 5.83333333,22 7.83333333,20.8333333 C8.16666667,20.6666667 8.66666667,20.3333333 9.33333333,20 C9.83333333,19.1666667 10.3333333,18.1666667 11,17 C11.8333333,15.3333333 12.3333333,13.6666667 12.8333333,12.1666667 L12.8333333,12.1666667 C12.1666667,10.1666667 11.8333333,9 12.5,6.66666667 C12.6666667,6 13.1666667,5.33333333 13.8333333,5.33333333 L14.1666667,5.33333333 C14.5,5.33333333 14.8333333,5.5 15.1666667,5.66666667 C16.3333333,6.83333333 15.8333333,9.5 15.1666667,11.6666667 L15.1666667,11.8333333 C15.8333333,13.6666667 16.8333333,15.1666667 17.8333333,16.1666667 C18.3333333,16.5 18.6666667,16.8333333 19.3333333,17.1666667 C20.1666667,17.1666667 20.8333333,17 21.5,17 C23.5,17 24.8333333,17.3333333 25.3333333,18.1666667 C25.5,18.5 25.5,18.8333333 25.5,19.1666667 C25.3333333,19.3333333 25.1666667,19.8333333 24.8333333,20.1666667 L24.8333333,20.1666667 L24.8333333,20.1666667 Z M14,13.6666667 C13.6666667,14.8333333 13,16.1666667 12.3333333,17.6666667 C12,18.3333333 11.6666667,18.8333333 11.3333333,19.5 L11.5,19.5 L11.6666667,19.5 C13.8333333,18.6666667 15.8333333,18.1666667 17.1666667,18 C16.8333333,17.8333333 16.6666667,17.6666667 16.5,17.5 C15.6666667,16.5 14.6666667,15.1666667 14,13.6666667 L14,13.6666667 L14,13.6666667 Z" id="pdf" fill="#4A4A4A" sketch:type="MSShapeGroup"></path>
    </g>
</svg>