<?xml version="1.0" encoding="UTF-8" standalone="no"?>
<svg width="23px" height="23px" viewBox="0 0 23 23" version="1.1" xmlns="http://www.w3.org/2000/svg" xmlns:xlink="http://www.w3.org/1999/xlink" xmlns:sketch="http://www.bohemiancoding.com/sketch/ns">
    <!-- Generator: Sketch 3.4.4 (17249) - http://www.bohemiancoding.com/sketch -->
    <title>phone-2</title>
    <desc>Created with Sketch.</desc>
    <defs></defs>
    <g id="Page-1" stroke="none" stroke-width="1" fill="none" fill-rule="evenodd" sketch:type="MSPage">
        <path d="M15.8202105,23.0011408 C14.1731386,22.9073972 12.5700501,22.4340686 11.1362105,21.6181408 C6.58101767,19.2979298 2.96566196,15.4773649 0.900210527,10.8011408 C0.320260871,9.62360811 0.0126659369,8.33068407 0.000210526911,7.01814083 C-0.00935326301,6.22388042 0.3072917,5.46046243 0.876210527,4.90614083 C1.42721053,4.36814083 1.96621053,3.81714083 2.51821053,3.28014083 C2.79686585,2.93881732 3.21062891,2.73613247 3.65111786,2.7251779 C4.09160682,2.71422333 4.51493335,2.89609052 4.81021053,3.22314083 C5.75121053,4.10914083 6.66821053,5.02314083 7.54821053,5.96914083 C7.90242793,6.25858365 8.10690253,6.69257572 8.10457266,7.15000515 C8.1022428,7.60743459 7.89335796,8.03932126 7.53621053,8.32514083 C6.91921053,8.99914083 6.26621053,9.64014083 5.61021053,10.2761408 C5.39930848,10.4421986 5.34909461,10.7413174 5.49421053,10.9671408 C6.32256552,12.5882612 7.44965279,14.0383428 8.81621053,15.2411408 C9.73381835,16.1353219 10.7855012,16.8806435 11.9332105,17.4501408 C12.1695698,17.6247077 12.501766,17.5804739 12.6842105,17.3501408 C13.3155439,16.6894742 13.9622105,16.0438075 14.6242105,15.4131408 C14.9177105,15.0665582 15.3500154,14.8682789 15.804161,14.8719491 C16.2583067,14.8756194 16.6873504,15.0808598 16.9752105,15.4321408 C17.8342105,16.2711408 18.6882105,17.1171408 19.5272105,17.9771408 C19.9415196,18.2885086 20.1842699,18.7773915 20.1819061,19.2956543 C20.1795423,19.8139171 19.9323426,20.3005653 19.5152105,20.6081408 C19.0232105,21.1081408 18.5152105,21.5991408 18.0262105,22.1081408 C17.4534037,22.7090347 16.6497145,23.0343722 15.8202105,23.0011408 L15.8202105,23.0011408 L15.8202105,23.0011408 Z M12.0302105,0.0281408304 C14.3661611,0.110125845 16.6148188,0.936292097 18.4482105,2.38614083 C21.1733564,4.46147289 22.8359082,7.64003146 22.9862105,11.0621408 C22.9952089,11.2056666 22.9952089,11.3496151 22.9862105,11.4931408 C22.9845169,11.7851601 22.8645317,12.0640227 22.6536584,12.2660389 C22.4427852,12.4680551 22.1590338,12.5759715 21.8672105,12.5651408 C21.5841985,12.5954805 21.3009111,12.5103974 21.0814494,12.3291439 C20.8619877,12.1478904 20.7249017,11.8857868 20.7012105,11.6021408 C20.6195353,10.7453584 20.490673,9.89373202 20.3152105,9.05114083 C19.3076948,5.34774934 16.080735,2.67763131 12.2542105,2.38114083 C12.0072105,2.36314083 11.7612105,2.34114083 11.5142105,2.31514083 C10.8933542,2.25811877 10.4286163,1.72053455 10.4619638,1.09795764 C10.4953113,0.475380721 11.0148154,-0.00948383514 11.6382105,0.000140830397 C11.7712105,0.0011408304 11.9002105,0.0201408304 12.0302105,0.0301408304 L12.0302105,0.0281408304 L12.0302105,0.0281408304 Z M18.6612105,10.9701408 C18.7202105,12.2541408 18.1882105,12.8341408 17.3832105,12.7381408 C16.8306057,12.6651047 16.4078935,12.2096501 16.3762105,11.6531408 C16.315431,11.0187153 16.1901162,10.3921411 16.0022105,9.78314083 C15.3823431,8.05222794 13.8041796,6.84638731 11.9712105,6.70314083 C11.7512105,6.67614083 11.5302105,6.67114083 11.3102105,6.64414083 C10.7147929,6.5672284 10.2784977,6.0455837 10.3080609,5.44594737 C10.3376241,4.84631104 10.8231149,4.37011216 11.4232105,4.35214083 C12.7865881,4.31441613 14.1294593,4.69022485 15.2752105,5.43014083 C17.2393316,6.61554408 18.5027949,8.68350436 18.6612105,10.9721408 L18.6612105,10.9701408 L18.6612105,10.9701408 Z" id="phone-2" fill="#4A4A4A" sketch:type="MSShapeGroup"></path>
    </g>
</svg>