<?xml version="1.0" encoding="UTF-8" standalone="no"?>
<svg width="83px" height="90px" viewBox="0 0 83 90" version="1.1" xmlns="http://www.w3.org/2000/svg" xmlns:xlink="http://www.w3.org/1999/xlink" xmlns:sketch="http://www.bohemiancoding.com/sketch/ns">
    <!-- Generator: Sketch 3.4.3 (16044) - http://www.bohemiancoding.com/sketch -->
    <title>safari</title>
    <desc>Created with Sketch.</desc>
    <defs></defs>
    <g id="Page-1" stroke="none" stroke-width="1" fill="none" fill-rule="evenodd" sketch:type="MSPage">
        <path d="M36.68,44.27 L25.63,71.87 L47,52 L57.86,24.8 L36.68,44.27 Z M42.41,51.79 C40.426806,52.0778697 38.5855132,50.7041896 38.2965021,48.7211617 C38.0074911,46.7381337 39.3801113,44.8960506 41.3629726,44.6058984 C43.3458339,44.3157462 45.1887067,45.687306 45.48,47.67 C45.6200988,48.6235852 45.375211,49.5937397 44.7993218,50.3665942 C44.2234327,51.1394487 43.3638257,51.6515478 42.41,51.79 L42.41,51.79 Z M27.34,4.4 C27.34,2 29.89,0 33,0 C36.11,0 38.67,2 38.67,4.4 C38.6710303,5.36824568 38.2985017,6.29956711 37.63,7 C37.3663279,6.47822679 37.029606,5.99671448 36.63,5.57 C36.8728854,5.2284056 37.0023127,4.81913569 37,4.4 C37,2.91 35.16,1.65 33,1.65 C30.84,1.65 29,2.91 29,4.4 C29.1053666,5.42282305 29.7845848,6.29610366 30.75,6.65 C30.552809,7.18027671 30.4316087,7.73577804 30.39,8.3 C28.6723194,7.74480037 27.4648751,6.20085523 27.34,4.4 L27.34,4.4 Z M31.07,53.59 L16.8,53.41 L29.91,47.18 C30.0125485,45.6364294 30.4168461,44.1279579 31.1,42.74 L25,36.45 L33.18,39.74 C34.0884608,38.7942091 35.1458124,38.0037289 36.31,37.4 L37.07,23.16 L43,36.1 L41,37.95 C37.9729205,38.2054725 35.2220507,39.8111949 33.5110843,42.3213882 C31.8001179,44.8315816 31.3111767,47.9790512 32.18,50.89 L31.07,53.59 Z M41.82,7.74 C40.2096339,7.73243833 38.6002084,7.81925381 37,8 C36.4,6.41 35.16,5 33.51,5.34 C31.86,5.68 31.38,7.56 31.4,9.09 C10.5729121,14.5815043 -2.41206747,35.3004571 1.72599394,56.4381168 C5.86405535,77.5757765 25.7032395,91.8688331 47.0636141,89.1014141 C68.4239887,86.3339952 83.9657145,67.4570395 82.5804405,45.9627326 C81.1951665,24.4684258 63.3588998,7.74262877 41.82,7.74 L41.82,7.74 Z M50.47,79.94 L47.83,76 L47.16,80.64 C30.1641349,83.4630163 13.9109205,72.5574076 10.08,55.76 L13.61,53.5 L9.51,52.44 C7.54221366,36.0424219 18.1701007,20.7712833 34.23,16.92 L36.4,20.32 L37.2,16.32 C53.4243766,13.9992194 68.8449391,24.0996879 73.2,39.9 L69.77,42.6 L73.88,43 C76.7377982,59.5013901 66.6120528,75.4793925 50.47,79.94 L50.47,79.94 Z M66.17,43.37 L53.67,49.37 C53.5369105,50.5281732 53.233644,51.6603681 52.77,52.73 L59.1,59.23 L50.77,55.86 C49.8114879,56.9511152 48.662867,57.8591695 47.38,58.54 L47.05,73 L40.85,60.06 L43.08,58 C45.9890975,57.6290804 48.5928796,56.0108335 50.213412,53.5665944 C51.8339444,51.1223554 52.3108649,48.0939976 51.52,45.27 L52.52,42.76 L66.17,43.37 Z" id="safari" fill="#9B9B9B" sketch:type="MSShapeGroup"></path>
    </g>
</svg>