<?xml version="1.0" encoding="UTF-8" standalone="no"?>
<svg width="23px" height="18px" viewBox="0 0 23 18" version="1.1" xmlns="http://www.w3.org/2000/svg" xmlns:xlink="http://www.w3.org/1999/xlink" xmlns:sketch="http://www.bohemiancoding.com/sketch/ns">
    <!-- Generator: Sketch 3.4.3 (16044) - http://www.bohemiancoding.com/sketch -->
    <title>twitter</title>
    <desc>Created with Sketch.</desc>
    <defs></defs>
    <g id="Page-1" stroke="none" stroke-width="1" fill="none" fill-rule="evenodd" sketch:type="MSPage">
        <path d="M23.006,2.13122111 C22.1419397,2.50014442 21.2292277,2.74263615 20.296,2.85122111 C21.270069,2.29028362 22.0073999,1.39482644 22.371,0.331221108 C21.4395196,0.863007097 20.4254584,1.23482953 19.371,1.43122111 C18.4621913,0.510546454 17.2206526,-0.0049588756 15.927,0.00122110829 C14.5165243,-0.0312496961 13.1691551,0.585339342 12.2717209,1.67396597 C11.3742868,2.7625926 11.026054,4.20284254 11.327,5.58122111 C7.56673548,5.41451015 4.04441973,3.69427575 1.601,0.831221108 C0.349952084,2.91422587 1.00015192,5.61560367 3.062,6.90122111 C2.31466823,6.88031597 1.58255141,6.68513048 0.924,6.33122111 C0.926667708,8.55291713 2.52145303,10.4531765 4.709,10.8412211 C4.0138741,11.0288124 3.28523426,11.0561663 2.578,10.9212211 C3.2315783,12.80048 4.99639308,14.0656376 6.986,14.0812211 C4.98210983,15.5754793 2.48317544,16.2479666 0,15.9612211 C2.17422918,17.3009583 4.67915399,18.0074489 7.233,18.0012211 C10.8379036,18.0983538 14.3227054,16.7014865 16.8624363,14.1413045 C19.4021672,11.5811225 20.7710411,8.08522979 20.645,4.48122111 C21.5655202,3.84456384 22.3650509,3.04875816 23.006,2.13122111 L23.006,2.13122111 Z" id="twitter" fill="#9B9B9B" sketch:type="MSShapeGroup"></path>
    </g>
</svg>