<svg width="182" height="105" viewBox="0 0 182 105" xmlns="http://www.w3.org/2000/svg"><title>404</title><g fill="#FFF" fill-rule="evenodd"><path d="M6.548 6.215a1.665 1.665 0 1 0 0-3.33 1.665 1.665 0 0 0 0 3.33zm4.882 0a1.665 1.665 0 1 0 0-3.33 1.665 1.665 0 0 0 0 3.33zm5.105 0a1.665 1.665 0 1 0 0-3.33 1.665 1.665 0 0 0 0 3.33zM4.335 9.01H178.005V7.9H3.773v1.11h.562z"/><path d="M1.11 4.45v95.418a3.34 3.34 0 0 0 3.344 3.34h173.092a3.334 3.334 0 0 0 3.344-3.34V4.448a3.34 3.34 0 0 0-3.344-3.338H4.454A3.334 3.334 0 0 0 1.11 4.45zM0 4.45A4.444 4.444 0 0 1 4.454 0h173.092A4.45 4.45 0 0 1 182 4.45v95.418a4.444 4.444 0 0 1-4.454 4.45H4.454A4.45 4.45 0 0 1 0 99.867V4.448z"/><path d="M69.893 66.12H65.14v8.234l.5-.5H55.346l.5.5V66.12H39.95l.5.5v-7.925l-.082.276L56.413 34.68l-.417.224h9.645l-.5-.5V59.05h4.75l-.5-.5v8.06l.012.104.49-.095v-.5zm0 1h.606l-.116-.596-.002-.01.01-7.964v-.5h-4.75l.5.5V33.902H55.725l-.147.225L39.533 58.42l-.083.125v8.574h15.895l-.5-.5v8.234H66.14V66.62l-.5.5h4.253zm-14.048-8.56v-4.643c0-.873.03-2.045.093-3.517.03-.735.058-1.296.082-1.682.016-.257.042-.518.02-.47l.314-.704H54.962l-.13.305a28.668 28.668 0 0 1-1.996 3.865l-4.272 6.574-.5.77h8.461l-.82-.846v-.002l-.36.348h.5zm-1 0v.202l.14.145.002.002.36-.35v-.5h-6.363l.42.774 4.276-6.584a29.69 29.69 0 0 0 2.073-4.01l-.46-.196v.5h.29v-.5l-.456-.203c-.078.176-.116.78-.19 2.52a89.2 89.2 0 0 0-.092 3.557v4.643zm46.36-4.116c0 6.78-1.13 11.72-3.36 14.82-2.206 3.06-5.58 4.59-10.175 4.59-4.486 0-7.83-1.597-10.09-4.8-2.29-3.243-3.444-8.112-3.444-14.61 0-6.816 1.13-11.788 3.363-14.913 2.204-3.084 5.575-4.626 10.168-4.628 4.468 0 7.81 1.605 10.077 4.825 2.297 3.26 3.458 8.166 3.46 14.717zm1 0c-.002-6.74-1.208-11.838-3.642-15.293-2.463-3.495-6.112-5.248-10.895-5.248-4.9.002-8.58 1.685-10.983 5.048-2.375 3.324-3.55 8.488-3.55 15.494 0 6.686 1.202 11.75 3.627 15.187 2.454 3.48 6.108 5.224 10.908 5.224 4.902 0 8.582-1.67 10.985-5.006 2.377-3.3 3.55-8.433 3.55-15.404zm-18.62 0c0 4.446.28 7.51.85 9.222.612 1.835 1.705 2.81 3.234 2.807 1.553 0 2.652-1.01 3.252-2.9.56-1.763.833-4.8.834-9.136 0-4.354-.278-7.413-.847-9.203-.61-1.917-1.703-2.938-3.244-2.932-1.532 0-2.626.988-3.237 2.84-.572 1.732-.85 4.82-.845 9.303zm1 0c-.004-4.38.266-7.387.794-8.988.486-1.477 1.235-2.154 2.288-2.154 1.048-.004 1.8.697 2.288 2.236.53 1.665.8 4.64.8 8.9 0 4.24-.268 7.194-.787 8.832-.48 1.51-1.234 2.203-2.302 2.203-1.05.003-1.798-.664-2.284-2.123-.528-1.582-.8-4.56-.8-8.906zM135.39 66.12h-4.752v8.234l.5-.5h-10.296l.5.5V66.12H105.45l.5.5v-7.925l-.084.276L121.92 34.68l-.418.224h9.638l-.5-.5V59.05h4.75l-.5-.5v8.07h.5v-.5zm0 1h.5v-9.07h-4.75l.5.5V33.902h-10.406l-.15.225-16.053 24.293-.08.125v8.574h15.892l-.5-.5v8.234h11.296V66.62l-.5.5h4.252zm-14.048-8.56v-4.643c0-.873.03-2.045.093-3.517.03-.735.058-1.296.082-1.682.016-.257.042-.518.02-.47l.314-.704H120.46l-.13.305a28.666 28.666 0 0 1-2 3.865l-4.27 6.574-.502.77h7.784v-.5zm-1 0h.5v-.5h-6.363l.42.774 4.276-6.584a29.687 29.687 0 0 0 2.076-4.01l-.46-.196v.5h.29v-.5l-.458-.203c-.078.176-.115.78-.188 2.52a89.198 89.198 0 0 0-.094 3.557v4.643z"/></g></svg>